<svg xmlns="http://www.w3.org/2000/svg" xmlns:svgjs="http://svgjs.com/svgjs" xmlns:xlink="http://www.w3.org/1999/xlink" width="288" height="288"><svg xmlns="http://www.w3.org/2000/svg" xmlns:svgjs="http://svgjs.com/svgjs" xmlns:xlink="http://www.w3.org/1999/xlink" width="288" height="288" viewBox="0 0 288 288"><svg xmlns="http://www.w3.org/2000/svg" width="288" height="288" enable-background="new -.5 -.5 100 100" viewBox="-.5 -.5 100 100"><rect width="62.128" height="2.616" x="29.542" y="10.134" fill="#e00729" class="colorFFF svgShape colorfff"/><rect width="2.616" height="34.007" x="89.054" y="37.601" fill="#e00729" class="colorFFF svgShape colorfff"/><rect width="27.467" height="2.616" x="43.929" y="91.228" fill="#e00729" class="colorFFF svgShape colorfff"/><rect width="2.615" height="40.547" x="7.96" y="29.753" fill="#e00729" class="colorFFF svgShape colorfff"/><path fill="#e00729" d="M41.968,74.49c0-1.949-1.761-3.536-3.924-3.536h-6.855c-0.087,0-0.292,0-0.292-0.593		c0-3.326-0.981-5.429-1.807-6.606c-1.075-1.539-2.554-2.457-3.958-2.457c-1.64,0-2.785,1.234-2.785,3
		c0,5.246-6.54,9.178-6.54,9.178v0.096H7.96v20.272h7.847h2.616h18.312c2.126,0,3.923-1.58,3.923-3.448v-0.488
		c0-0.628-0.204-1.21-0.562-1.703c1.049-0.649,1.87-1.571,1.87-2.691v-0.56c0-0.873-0.355-1.675-0.941-2.294
		c0.582-0.656,0.941-1.495,0.941-2.38v-0.558c0-0.873-0.355-1.675-0.941-2.293c0.582-0.658,0.941-1.497,0.941-2.381V74.49z
		 M15.808,91.228h-5.232V76.187h5.232V91.228z M39.351,75.048c0,0.516-0.583,1.139-1.308,1.139h-4.578v2.616h4.578
		c0.697,0,1.308,0.43,1.308,0.919v0.558c0,0.517-0.583,1.14-1.308,1.14h-4.578v2.616h4.578c0.697,0,1.308,0.431,1.308,0.918v0.492
		c-0.23,0.426-1.667,1.205-2.615,1.205h-3.271v2.616h3.271c0.798,0,1.308,0.422,1.308,0.641v0.488c0,0.294-0.539,0.832-1.308,0.832
		H18.424V74.934c1.774-1.219,6.541-5.019,6.541-10.636c0-0.241,0.051-0.354,0.065-0.37c0.059-0.031,0.359-0.037,0.8,0.229
		c1.13,0.677,2.452,2.71,2.452,6.205c0,1.889,1.195,3.21,2.908,3.21h6.855c0.697,0,1.308,0.43,1.308,0.919V75.048z" class="colorFFF svgShape colorfff"/><polygon fill="#e00729" points="78.392 75.916 80.241 77.765 85.09 72.917 80.241 68.068 78.392 69.917 80.082 71.608 68.78 71.608 68.78 85.996 71.396 85.996 71.396 74.225 80.082 74.225" class="colorFFF svgShape colorfff"/><polygon fill="#e00729" points="91.67 76.187 89.054 76.187 89.054 87.958 80.439 87.958 82.131 86.267 80.282 84.418 75.433 89.267 80.282 94.115 82.131 92.266 80.439 90.574 91.67 90.574" class="colorFFF svgShape colorfff"/><path fill="#e00729" d="M79.898 42.048l-12.733-12.48.107-.105c-1.145-1.513-1.762-3.339-1.762-5.259 0-2.366.939-4.588 2.644-6.259 3.189-3.127 8.23-3.4 11.744-.811 3.514-2.591 8.555-2.316 11.745.811 1.703 1.67 2.643 3.893 2.643 6.259 0 1.92-.618 3.746-1.762 5.259l.07.068L91.681 30.5 79.898 42.048zM21.091 25.808c-1.22 0-2.342.422-3.229 1.121l-4.077-4.006c.389-.716.611-1.534.611-2.403 0-.869-.222-1.688-.611-2.403l4.689-4.608c.77.447 1.663.708 2.616.708 2.857 0 5.181-2.294 5.181-5.114 0-2.82-2.323-5.114-5.181-5.114-2.856 0-5.18 2.293-5.18 5.114 0 .936.26 1.81.705 2.564l-4.623 4.543c-.804-.507-1.754-.804-2.776-.804-2.857 0-5.181 2.294-5.181 5.113s2.324 5.114 5.181 5.114c1.022 0 1.974-.298 2.776-.805l4.286 4.212c-.235.582-.368 1.216-.368 1.881 0 2.82 2.323 5.113 5.18 5.113 2.857 0 5.181-2.293 5.181-5.113S23.948 25.808 21.091 25.808zM21.091 6.605c1.414 0 2.564 1.12 2.564 2.498s-1.15 2.498-2.564 2.498c-1.414 0-2.564-1.121-2.564-2.498S19.677 6.605 21.091 6.605zM9.217 23.017c-1.414 0-2.564-1.12-2.564-2.497s1.15-2.499 2.564-2.499 2.563 1.122 2.563 2.499S10.631 23.017 9.217 23.017zM21.091 33.419c-1.414 0-2.564-1.121-2.564-2.498 0-1.377 1.15-2.498 2.564-2.498 1.414 0 2.564 1.121 2.564 2.498C23.655 32.299 22.505 33.419 21.091 33.419zM46.227 59.183l-1.534-3.269h-6.908l-1.532 3.269h-3.915l7.121-16.349h3.561l7.121 16.349H46.227zM41.251 47.896l-2.075 4.747h4.127L41.251 47.896zM64.641 44.946c1.572 1.427 2.357 3.399 2.357 5.94 0 2.542-.765 4.573-2.296 6.056-1.533 1.48-3.873 2.241-7.016 2.241h-5.909V42.833h6.096C60.814 42.833 63.07 43.52 64.641 44.946zM61.942 54.644c.902-.841 1.355-2.068 1.355-3.675 0-1.605-.453-2.772-1.355-3.637-.905-.866-2.292-1.229-4.161-1.229H55.7v9.811h2.363C59.745 55.914 61.037 55.486 61.942 54.644z" class="colorFFF svgShape colorfff"/><rect width="28.775" height="1.309" x="31.504" y="19.289" fill="#e00729" class="colorFFF svgShape colorfff"/><rect width="20.274" height="1.308" x="45.237" y="85.343" fill="#e00729" class="colorFFF svgShape colorfff"/><rect width="13.733" height="1.307" x="13.846" y="50.682" fill="#e00729" class="colorFFF svgShape colorfff"/><rect width="6.54" height="1.308" x="17.115" y="53.951" fill="#e00729" class="colorFFF svgShape colorfff"/><rect width="13.733" height="1.307" x="72.051" y="50.682" fill="#e00729" class="colorFFF svgShape colorfff"/><rect width="6.54" height="1.308" x="75.32" y="53.951" fill="#e00729" class="colorFFF svgShape colorfff"/><rect width="100" height="100" x="-.5" y="-.5" fill="none"/></svg></svg></svg>