<svg xmlns="http://www.w3.org/2000/svg" width="87" height="87" viewBox="0 0 87 87">
  <g id="Advertising" transform="translate(0)">
    <g id="Grupo_8084" data-name="Grupo 8084" transform="translate(3.376 3.921)">
      <rect id="Rectángulo_1780" data-name="Rectángulo 1780" width="54.273" height="2.285" transform="translate(22.282 5.368)" fill="#a8b5c1"/>
      <rect id="Rectángulo_1781" data-name="Rectángulo 1781" width="2.285" height="29.707" transform="translate(74.27 29.362)" fill="#a8b5c1"/>
      <rect id="Rectángulo_1782" data-name="Rectángulo 1782" width="23.994" height="2.285" transform="translate(34.85 76.209)" fill="#a8b5c1"/>
      <rect id="Rectángulo_1783" data-name="Rectángulo 1783" width="2.284" height="35.421" transform="translate(3.429 22.507)" fill="#a8b5c1"/>
      <path id="Trazado_11490" data-name="Trazado 11490" d="M37.668,72.822a3.276,3.276,0,0,0-3.428-3.089H28.252c-.076,0-.255,0-.255-.518a9.844,9.844,0,0,0-1.579-5.771A4.482,4.482,0,0,0,22.961,61.3a2.422,2.422,0,0,0-2.433,2.621c0,4.583-5.713,8.018-5.713,8.018v.084H7.96V89.729H33.1a3.284,3.284,0,0,0,3.427-3.012v-.426a2.512,2.512,0,0,0-.491-1.488,2.946,2.946,0,0,0,1.634-2.351v-.489a2.908,2.908,0,0,0-.822-2,3.152,3.152,0,0,0,.822-2.079v-.487a2.9,2.9,0,0,0-.822-2,3.159,3.159,0,0,0,.822-2.08v-.487ZM14.816,87.444H10.245V74.3h4.571V87.444ZM35.382,73.31a1.148,1.148,0,0,1-1.143,1h-4V76.59h4c.609,0,1.143.376,1.143.8v.487a1.148,1.148,0,0,1-1.143,1h-4v2.285h4c.609,0,1.143.377,1.143.8v.43A3.574,3.574,0,0,1,33.1,83.446H30.24v2.285H33.1c.7,0,1.143.369,1.143.56v.426c0,.257-.471.727-1.143.727h-16V73.21c1.55-1.065,5.714-4.384,5.714-9.291a.643.643,0,0,1,.057-.323.975.975,0,0,1,.7.2c.987.591,2.142,2.367,2.142,5.421a2.566,2.566,0,0,0,2.54,2.8h5.988c.609,0,1.143.376,1.143.8v.487Z" transform="translate(-4.531 -11.235)" fill="#a8b5c1"/>
      <g id="Grupo_8082" data-name="Grupo 8082" transform="translate(56.559 55.977)">
        <path id="Trazado_11491" data-name="Trazado 11491" d="M77.177,74.924l1.615,1.615L83.028,72.3l-4.236-4.236-1.615,1.615,1.476,1.477H68.78V83.729h2.285V73.447h7.588Z" transform="translate(-68.78 -68.068)" fill="#a8b5c1"/>
        <path id="Trazado_11492" data-name="Trazado 11492" d="M89.617,76.187H87.332V86.47H79.806l1.478-1.477-1.615-1.615-4.236,4.236,4.236,4.235,1.615-1.615-1.478-1.478h9.811Z" transform="translate(-69.621 -69.094)" fill="#a8b5c1"/>
      </g>
      <path id="Trazado_11493" data-name="Trazado 11493" d="M78.079,38.676l-11.123-10.9.093-.092a7.626,7.626,0,0,1,.77-10.062,7.986,7.986,0,0,1,10.259-.708,7.985,7.985,0,0,1,10.26.708,7.627,7.627,0,0,1,.77,10.062l.061.059-.8.846Z" transform="translate(-11.807 -5.429)" fill="#a8b5c1"/>
      <path id="Trazado_11494" data-name="Trazado 11494" d="M18.935,23.049a4.545,4.545,0,0,0-2.821.979l-3.562-3.5a4.395,4.395,0,0,0,0-4.2l4.1-4.025A4.527,4.527,0,0,0,23.46,8.456a4.526,4.526,0,0,0-9.051,0,4.391,4.391,0,0,0,.616,2.24l-4.039,3.969a4.467,4.467,0,1,0,0,7.528l3.744,3.679a4.378,4.378,0,0,0-.321,1.643,4.526,4.526,0,1,0,4.526-4.467Zm0-16.775a2.183,2.183,0,1,1-2.24,2.182A2.214,2.214,0,0,1,18.935,6.274ZM8.562,20.611A2.183,2.183,0,1,1,10.8,18.43,2.213,2.213,0,0,1,8.562,20.611ZM18.935,29.7a2.183,2.183,0,1,1,2.24-2.182A2.214,2.214,0,0,1,18.935,29.7Z" transform="translate(-4.035 -3.989)" fill="#a8b5c1"/>
      <g id="Grupo_8083" data-name="Grupo 8083" transform="translate(24.725 33.933)">
        <path id="Trazado_11495" data-name="Trazado 11495" d="M44.471,57.116l-1.34-2.856H37.1l-1.338,2.856h-3.42l6.221-14.282h3.111L47.89,57.116Zm-4.347-9.86L38.311,51.4h3.605Z" transform="translate(-32.338 -42.833)" fill="#a8b5c1"/>
        <path id="Trazado_11496" data-name="Trazado 11496" d="M63.015,44.679a6.643,6.643,0,0,1,2.059,5.189,7.039,7.039,0,0,1-2.006,5.29c-1.339,1.293-3.383,1.958-6.129,1.958H51.777V42.833H57.1A8.5,8.5,0,0,1,63.015,44.679Zm-2.358,8.472a4.18,4.18,0,0,0,1.184-3.21,4.136,4.136,0,0,0-1.184-3.177,5.084,5.084,0,0,0-3.635-1.074H55.2V54.26h2.064A4.793,4.793,0,0,0,60.657,53.151Z" transform="translate(-34.796 -42.833)" fill="#a8b5c1"/>
      </g>
      <rect id="Rectángulo_1784" data-name="Rectángulo 1784" width="25.137" height="1.144" transform="translate(23.996 13.366)" fill="#a8b5c1"/>
      <rect id="Rectángulo_1785" data-name="Rectángulo 1785" width="17.711" height="1.143" transform="translate(35.993 71.068)" fill="#a8b5c1"/>
      <rect id="Rectángulo_1786" data-name="Rectángulo 1786" width="11.997" height="1.142" transform="translate(8.571 40.79)" fill="#a8b5c1"/>
      <rect id="Rectángulo_1787" data-name="Rectángulo 1787" width="5.713" height="1.143" transform="translate(11.426 43.645)" fill="#a8b5c1"/>
      <rect id="Rectángulo_1788" data-name="Rectángulo 1788" width="11.997" height="1.142" transform="translate(59.417 40.79)" fill="#a8b5c1"/>
      <rect id="Rectángulo_1789" data-name="Rectángulo 1789" width="5.713" height="1.143" transform="translate(62.272 43.645)" fill="#a8b5c1"/>
    </g>
    <rect id="Rectángulo_1790" data-name="Rectángulo 1790" width="87" height="87" transform="translate(0)" fill="none"/>
  </g>
</svg>
