<svg xmlns="http://www.w3.org/2000/svg" width="88" height="87" viewBox="0 0 88 87">
  <g id="Email_Marketing" transform="translate(0.026)">
    <g id="Grupo_8088" data-name="Grupo 8088" transform="translate(3.884 4.681)">
      <path id="Trazado_11507" data-name="Trazado 11507" d="M30.446,15.559H18.13V33.366H30.461l30.277,9.848V4.858ZM20.674,18.1h8.267V30.823H20.674ZM58.2,39.712,30.865,30.823h-.652V18.1h.668L58.2,8.454Z" transform="translate(-5.411 -4.858)" fill="#dd2517"/>
      <path id="Trazado_11508" data-name="Trazado 11508" d="M25.954,47.492H24.682V46.221h1.272Zm0-2.545H24.682V43.676h1.272Zm0-2.544H24.682V41.132h1.272Z" transform="translate(-6.239 -9.444)" fill="#dd2517"/>
      <path id="Trazado_11509" data-name="Trazado 11509" d="M30.322,50.035H29.05V48.764h1.272v1.272Zm0-2.543H29.05V46.221h1.272v1.272Zm0-2.545H29.05V43.676h1.272v1.272Zm0-2.544H29.05V41.132h1.272V42.4Z" transform="translate(-6.791 -9.444)" fill="#dd2517"/>
      <rect id="Rectángulo_1798" data-name="Rectángulo 1798" width="10.343" height="2.544" transform="translate(2.376 68.574)" fill="#dd2517"/>
      <rect id="Rectángulo_1799" data-name="Rectángulo 1799" width="7.632" height="2.543" transform="translate(5.088 62.851)" fill="#dd2517"/>
      <rect id="Rectángulo_1800" data-name="Rectángulo 1800" width="4.452" height="2.544" transform="translate(0 53.946)" fill="#dd2517"/>
      <rect id="Rectángulo_1801" data-name="Rectángulo 1801" width="5.724" height="2.544" transform="translate(5.345 75.569)" fill="#dd2517"/>
      <path id="Trazado_11510" data-name="Trazado 11510" d="M22.573,54.236V65.047H13.034v2.544H25.117V56.871l29.1,17.235L82.354,57.074v29.6H20.286v2.544H84.9V54.236ZM54.211,72.622,27.46,56.78H80.382Z" transform="translate(-4.767 -11.101)" fill="#dd2517"/>
      <path id="Trazado_11511" data-name="Trazado 11511" d="M69.09,38.087V35.542c3.816,0,6.36-4.806,6.36-10.493s-2.544-10.493-6.36-10.493V12.011c5.088,0,8.9,5.727,8.9,13.037S74.178,38.087,69.09,38.087Z" transform="translate(-11.854 -5.762)" fill="#dd2517"/>
      <path id="Trazado_11512" data-name="Trazado 11512" d="M80.737,42.531V39.987c5.261,0,9.54-6.846,9.54-15.263S86,9.461,80.737,9.461V6.917C87.4,6.917,92.82,14.9,92.82,24.724S87.4,42.531,80.737,42.531Z" transform="translate(-13.326 -5.118)" fill="#dd2517"/>
    </g>
    <rect id="Rectángulo_1802" data-name="Rectángulo 1802" width="88" height="87" transform="translate(-0.026)" fill="none"/>
  </g>
</svg>
