<svg xmlns="http://www.w3.org/2000/svg" xmlns:xlink="http://www.w3.org/1999/xlink" width="114.001" height="83.548" viewBox="0 0 114.001 83.548">
  <defs>
    <radialGradient id="radial-gradient" cx="0.5" cy="0.5" r="0.5" gradientTransform="matrix(1, 0, 0, -1, 0, 1.001)" gradientUnits="objectBoundingBox">
      <stop offset="0" stop-color="#4d4d4d"/>
      <stop offset="0.279" stop-color="#858585" stop-opacity="0.8"/>
      <stop offset="0.736" stop-color="#dcdcdc" stop-opacity="0.561"/>
      <stop offset="0.944" stop-color="#fff" stop-opacity="0"/>
      <stop offset="1" stop-color="#fff" stop-opacity="0"/>
    </radialGradient>
    <clipPath id="clip-path">
      <rect id="Rect치ngulo_1844" data-name="Rect치ngulo 1844" width="26.224" height="3.131" fill="url(#radial-gradient)"/>
    </clipPath>
    <clipPath id="clip-path-2">
      <path id="Trazado_16158" data-name="Trazado 16158" d="M458.679,555.531c0,.864-5.872,1.565-13.114,1.565s-13.113-.7-13.113-1.565,5.871-1.566,13.113-1.566,13.114.7,13.114,1.566" transform="translate(-432.452 -553.965)" fill="url(#radial-gradient)"/>
    </clipPath>
    <linearGradient id="linear-gradient" x1="0.5" y1="1.036" x2="0.5" y2="-0.606" gradientUnits="objectBoundingBox">
      <stop offset="0" stop-color="#042448"/>
      <stop offset="0.087" stop-color="#302646"/>
      <stop offset="0.278" stop-color="#652741"/>
      <stop offset="0.459" stop-color="#91233a"/>
      <stop offset="0.627" stop-color="#b21e34"/>
      <stop offset="0.777" stop-color="#cb162f"/>
      <stop offset="0.905" stop-color="#da0b2a"/>
      <stop offset="0.994" stop-color="#e00729"/>
    </linearGradient>
  </defs>
  <g id="NUEVO_LOGO_BUNJI" transform="translate(-74.306 -225.846)">
    <path id="Trazado_16141" data-name="Trazado 16141" d="M473.456,235.14h-4.587l-3.886,4.333a.885.885,0,0,1-1.316,0l-3.888-4.333h-4.586l7.81-8.706a1.781,1.781,0,0,1,2.644,0Z" transform="translate(-287.538 0)" fill="#e00729"/>
    <path id="Trazado_16142" data-name="Trazado 16142" d="M223,518.441a1.436,1.436,0,0,1-.174.053,1.315,1.315,0,0,0,.174-.053" transform="translate(-112.118 -220.885)" fill="#1c2c4d"/>
    <path id="Trazado_16143" data-name="Trazado 16143" d="M225.514,517.124h0l-.011.009s.007-.005.01-.009" transform="translate(-114.142 -219.891)" fill="#1c2c4d"/>
    <path id="Trazado_16144" data-name="Trazado 16144" d="M224.17,517.877a1.43,1.43,0,0,1-.144.077,1.4,1.4,0,0,0,.144-.077" transform="translate(-113.026 -220.46)" fill="#1c2c4d"/>
    <path id="Trazado_16145" data-name="Trazado 16145" d="M226.37,515.876c-.014.024-.025.049-.04.073.015-.023.026-.049.04-.073" transform="translate(-114.766 -218.949)" fill="#1c2c4d"/>
    <path id="Trazado_16146" data-name="Trazado 16146" d="M226.932,514.754c-.009.026-.014.053-.024.078.01-.025.015-.052.024-.078" transform="translate(-115.202 -218.102)" fill="#1c2c4d"/>
    <path id="Trazado_16147" data-name="Trazado 16147" d="M220.659,518.811l.02.015a1.955,1.955,0,0,0,.4-.043,1.559,1.559,0,0,1-.284.028Z" transform="translate(-110.485 -221.144)" fill="#1c2c4d"/>
    <path id="Trazado_16148" data-name="Trazado 16148" d="M193.267,301.9a1.605,1.605,0,0,0-1.178-.448h-3.263a1.6,1.6,0,0,0-1.178.448,1.57,1.57,0,0,0-.453,1.167v50.074a1.935,1.935,0,0,1-.037.373,1.368,1.368,0,0,1-.059.213c-.009.025-.015.053-.024.078a1.493,1.493,0,0,1-.1.2c-.014.024-.025.05-.04.073a1.518,1.518,0,0,1-.191.233h0s-.008.005-.01.009a1.6,1.6,0,0,1-.218.176,1.319,1.319,0,0,1-.144.077,1.19,1.19,0,0,1-.121.062,1.4,1.4,0,0,1-.174.053c-.038.01-.074.024-.113.031a1.987,1.987,0,0,1-.4.043l-.02-.014h-3.358a1.5,1.5,0,0,1-1.507-1.492v-3.25a.848.848,0,0,1-.009-.09V303.071a1.573,1.573,0,0,0-.453-1.167,1.6,1.6,0,0,0-1.178-.448h-3.263a1.6,1.6,0,0,0-1.178.448,1.568,1.568,0,0,0-.454,1.167v53.3a4.663,4.663,0,0,0,1.405,3.455,4.758,4.758,0,0,0,3.49,1.392h13.05a1.6,1.6,0,0,0,1.178-.449,1.573,1.573,0,0,0,.454-1.167V303.071a1.573,1.573,0,0,0-.454-1.167" transform="translate(-75.37 -57.079)" fill="#1c2c4d"/>
    <path id="Trazado_16149" data-name="Trazado 16149" d="M226.6,515.071a1.583,1.583,0,0,1-.1.2,1.5,1.5,0,0,0,.1-.2" transform="translate(-114.89 -218.341)" fill="#1c2c4d"/>
    <path id="Trazado_16150" data-name="Trazado 16150" d="M227.066,513.883a1.546,1.546,0,0,1-.059.213,1.385,1.385,0,0,0,.059-.213" transform="translate(-115.277 -217.444)" fill="#1c2c4d"/>
    <path id="Trazado_16151" data-name="Trazado 16151" d="M224.833,517.159a1.517,1.517,0,0,1-.218.176,1.6,1.6,0,0,0,.218-.176" transform="translate(-113.471 -219.918)" fill="#1c2c4d"/>
    <path id="Trazado_16152" data-name="Trazado 16152" d="M225.74,516.173a1.478,1.478,0,0,1-.191.233,1.521,1.521,0,0,0,.191-.233" transform="translate(-114.176 -219.173)" fill="#1c2c4d"/>
    <path id="Trazado_16153" data-name="Trazado 16153" d="M223.652,518.19a1.2,1.2,0,0,1-.121.062,1.2,1.2,0,0,0,.121-.062" transform="translate(-112.653 -220.696)" fill="#1c2c4d"/>
    <path id="Trazado_16154" data-name="Trazado 16154" d="M222.477,518.657a1.14,1.14,0,0,1-.113.031c.039-.007.075-.021.113-.031" transform="translate(-111.772 -221.048)" fill="#1c2c4d"/>
    <path id="Trazado_16155" data-name="Trazado 16155" d="M93.883,330.531V306.3a4.669,4.669,0,0,0-1.405-3.454,4.763,4.763,0,0,0-3.489-1.392H75.938a1.6,1.6,0,0,0-1.178.448,1.568,1.568,0,0,0-.454,1.167v56.536a1.565,1.565,0,0,0,.454,1.167,1.6,1.6,0,0,0,1.178.448h13.05a4.761,4.761,0,0,0,3.489-1.391,4.666,4.666,0,0,0,1.405-3.455V340.223a4.672,4.672,0,0,0-1.405-3.455,4.765,4.765,0,0,0-3.489-1.391,4.758,4.758,0,0,0,3.489-1.392,4.662,4.662,0,0,0,1.405-3.454m-6.536,22.8a1.5,1.5,0,0,1-1.507,1.493H82.348a1.5,1.5,0,0,1-1.507-1.493V340.116a1.5,1.5,0,0,1,1.507-1.492H85.84a1.5,1.5,0,0,1,1.507,1.492Zm0-22.689a1.5,1.5,0,0,1-1.507,1.493H82.348a1.5,1.5,0,0,1-1.507-1.493V309.425a1.5,1.5,0,0,1,1.507-1.491H85.84a1.5,1.5,0,0,1,1.507,1.491Z" transform="translate(0 -57.079)" fill="#1c2c4d"/>
    <path id="Trazado_16156" data-name="Trazado 16156" d="M274.442,360.773a1.608,1.608,0,0,0,1.178.448h3.263a1.6,1.6,0,0,0,1.178-.448,1.568,1.568,0,0,0,.453-1.167V309.532a2,2,0,0,1,.037-.373,1.406,1.406,0,0,1,.059-.214c.01-.025.015-.052.025-.077a1.365,1.365,0,0,1,.1-.2c.014-.025.025-.05.039-.073a1.494,1.494,0,0,1,.192-.234l.011-.009a1.552,1.552,0,0,1,.218-.176,1.352,1.352,0,0,1,.144-.077,1.255,1.255,0,0,1,.121-.062,1.665,1.665,0,0,1,.174-.054c.038-.01.074-.023.114-.03a1.976,1.976,0,0,1,.4-.043l.02.015h3.358a1.5,1.5,0,0,1,1.507,1.492v3.25a.672.672,0,0,1,.01.09v46.844a1.57,1.57,0,0,0,.454,1.167,1.607,1.607,0,0,0,1.178.448h3.262a1.6,1.6,0,0,0,1.178-.448,1.571,1.571,0,0,0,.454-1.167V306.3a4.664,4.664,0,0,0-1.4-3.456,4.757,4.757,0,0,0-3.49-1.391H275.621a1.6,1.6,0,0,0-1.178.448,1.57,1.57,0,0,0-.453,1.167v56.536a1.57,1.57,0,0,0,.452,1.167" transform="translate(-150.745 -57.079)" fill="#1c2c4d"/>
    <path id="Trazado_16157" data-name="Trazado 16157" d="M387.545,303.028a4.665,4.665,0,0,0-2.7-1.332h-.789a1.6,1.6,0,0,0-1.178.448,1.565,1.565,0,0,0-.454,1.164v50.033a1.568,1.568,0,0,1-.452,1.152,1.6,1.6,0,0,1-1.178.449h-3.263a1.6,1.6,0,0,1-1.178-.449,1.562,1.562,0,0,1-.452-1.167V350.1a1.575,1.575,0,0,0-.454-1.166,1.606,1.606,0,0,0-1.178-.449H371a1.6,1.6,0,0,0-1.178.449,1.568,1.568,0,0,0-.454,1.166v6.461a4.663,4.663,0,0,0,1.4,3.455,4.758,4.758,0,0,0,3.489,1.391h9.788a5.7,5.7,0,0,0,.789-.059,4.746,4.746,0,0,0,4.1-4.787V306.482a4.668,4.668,0,0,0-1.4-3.454" transform="translate(-222.751 -57.261)" fill="#1c2c4d"/>
    <g id="Grupo_8425" data-name="Grupo 8425" transform="translate(162.083 306.262)">
      <g id="Grupo_8424" data-name="Grupo 8424" transform="translate(0 0)">
        <g id="Grupo_8423" data-name="Grupo 8423" clip-path="url(#clip-path)">
          <g id="Grupo_8422" data-name="Grupo 8422" transform="translate(-0.002 0)" clip-path="url(#clip-path-2)">
            <rect id="Rect치ngulo_1843" data-name="Rect치ngulo 1843" width="26.227" height="3.131" transform="translate(0 0)" fill="url(#radial-gradient)"/>
          </g>
        </g>
      </g>
    </g>
    <path id="Trazado_16159" data-name="Trazado 16159" d="M472.595,513.394l7.265,1.391c.558.1.887-.6.736-1.568s-.728-1.843-1.286-1.948l-7.265-1.39c-.557-.105-.886.6-.735,1.568s.727,1.843,1.285,1.948" transform="translate(-299.678 -214.413)" fill="#1c2c4d"/>
    <path id="Trazado_16160" data-name="Trazado 16160" d="M472.595,490.795l7.265,1.39c.558.105.887-.6.736-1.567s-.728-1.844-1.286-1.948l-7.265-1.391c-.557-.1-.886.6-.735,1.569s.727,1.842,1.285,1.948" transform="translate(-299.678 -197.352)" fill="#1c2c4d"/>
    <path id="Trazado_16161" data-name="Trazado 16161" d="M471.809,460.361l7.323,3.48c.563.265,1.143-.309,1.3-1.281a2.193,2.193,0,0,0-.741-2.241l-7.323-3.48c-.563-.266-1.144.308-1.3,1.281a2.194,2.194,0,0,0,.741,2.241" transform="translate(-299.495 -174.332)" fill="#1c2c4d"/>
    <path id="Trazado_16162" data-name="Trazado 16162" d="M471.809,432.081l7.323,3.479c.563.266,1.143-.308,1.3-1.28a2.194,2.194,0,0,0-.741-2.242l-7.323-3.479c-.563-.266-1.144.307-1.3,1.279a2.2,2.2,0,0,0,.741,2.242" transform="translate(-299.495 -152.983)" fill="#1c2c4d"/>
    <path id="Trazado_16163" data-name="Trazado 16163" d="M471.809,403.8l7.323,3.48c.563.265,1.143-.308,1.3-1.281a2.193,2.193,0,0,0-.741-2.241l-7.323-3.48c-.563-.265-1.144.309-1.3,1.28a2.194,2.194,0,0,0,.741,2.242" transform="translate(-299.495 -131.631)" fill="#1c2c4d"/>
    <path id="Trazado_16164" data-name="Trazado 16164" d="M471.809,375.531l7.323,3.479c.563.266,1.143-.307,1.3-1.28a2.193,2.193,0,0,0-.741-2.241l-7.323-3.48c-.563-.266-1.144.308-1.3,1.28a2.194,2.194,0,0,0,.741,2.241" transform="translate(-299.495 -110.293)" fill="#1c2c4d"/>
    <path id="Trazado_16165" data-name="Trazado 16165" d="M471.809,319.05l7.323,3.479c.563.266,1.143-.308,1.3-1.28a2.194,2.194,0,0,0-.741-2.242l-7.323-3.479c-.563-.266-1.144.308-1.3,1.28a2.195,2.195,0,0,0,.741,2.241" transform="translate(-299.495 -67.654)" fill="#1c2c4d"/>
    <path id="Trazado_16166" data-name="Trazado 16166" d="M471.809,347.293l7.323,3.479c.563.266,1.143-.308,1.3-1.28a2.2,2.2,0,0,0-.741-2.242l-7.323-3.479c-.563-.266-1.144.308-1.3,1.28a2.2,2.2,0,0,0,.741,2.242" transform="translate(-299.495 -88.975)" fill="#1c2c4d"/>
    <path id="Trazado_16167" data-name="Trazado 16167" d="M479.139,354.238l-7.331,3.431a2.2,2.2,0,0,0-.74,2.242c.154.971.735,1.544,1.3,1.28l7.331-3.431a2.192,2.192,0,0,0,.741-2.241c-.128-.811-.554-1.345-1.017-1.345a.648.648,0,0,0-.279.065m0-5.538-7.331,3.43a2.194,2.194,0,0,0-.74,2.241c.154.972.735,1.545,1.3,1.282l7.331-3.431a2.193,2.193,0,0,0,.741-2.241c-.128-.812-.554-1.344-1.018-1.344a.634.634,0,0,0-.278.065m0-5.624-7.331,3.431a2.194,2.194,0,0,0-.74,2.241c.154.972.735,1.545,1.3,1.279l7.331-3.43a2.193,2.193,0,0,0,.741-2.241c-.128-.811-.554-1.345-1.018-1.345a.635.635,0,0,0-.278.065m0-6.932-7.331,3.43a2.2,2.2,0,0,0-.74,2.241c.154.973.735,1.547,1.3,1.281l7.331-3.43a2.191,2.191,0,0,0,.741-2.241c-.128-.812-.554-1.345-1.018-1.345a.63.63,0,0,0-.278.064m0-6.931-7.331,3.43a2.2,2.2,0,0,0-.74,2.242c.154.972.735,1.545,1.3,1.281l7.331-3.43a2.192,2.192,0,0,0,.741-2.241c-.128-.812-.554-1.346-1.017-1.346a.649.649,0,0,0-.279.065m0-6.927-7.331,3.429a2.2,2.2,0,0,0-.74,2.243c.154.971.735,1.544,1.3,1.28l7.331-3.431a2.192,2.192,0,0,0,.741-2.241c-.128-.811-.554-1.346-1.017-1.346a.66.66,0,0,0-.279.066m0-6.923-7.331,3.431a2.2,2.2,0,0,0-.74,2.242c.154.973.735,1.546,1.3,1.28l7.331-3.431a2.191,2.191,0,0,0,.741-2.241c-.128-.812-.555-1.346-1.019-1.346a.653.653,0,0,0-.278.064m0-6.925-7.331,3.43a2.2,2.2,0,0,0-.74,2.242c.154.972.735,1.544,1.3,1.281l7.331-3.431a2.194,2.194,0,0,0,.741-2.242c-.128-.811-.554-1.344-1.017-1.344a.654.654,0,0,0-.279.065m0-6.924-7.331,3.431a2.2,2.2,0,0,0-.74,2.242c.154.972.735,1.545,1.3,1.28l7.331-3.43a2.191,2.191,0,0,0,.741-2.241c-.128-.812-.555-1.346-1.019-1.346a.661.661,0,0,0-.278.064" transform="translate(-299.495 -57.076)" fill="url(#linear-gradient)"/>
  </g>
</svg>
