<svg xmlns="http://www.w3.org/2000/svg" width="87" height="87" viewBox="0 0 87 87">
  <g id="Online_Learning" transform="translate(0.129)">
    <rect id="Rect치ngulo_1803" data-name="Rect치ngulo 1803" width="87" height="87" transform="translate(-0.129)" fill="none"/>
    <g id="Grupo_8089" data-name="Grupo 8089" transform="translate(2.437 4.186)">
      <circle id="Elipse_20" data-name="Elipse 20" cx="0.935" cy="0.935" r="0.935" transform="translate(7.2 5.214)" fill="#dd2517"/>
      <circle id="Elipse_21" data-name="Elipse 21" cx="0.935" cy="0.935" r="0.935" transform="translate(10.941 5.214)" fill="#dd2517"/>
      <circle id="Elipse_22" data-name="Elipse 22" cx="0.935" cy="0.935" r="0.935" transform="translate(14.681 5.214)" fill="#dd2517"/>
      <rect id="Rect치ngulo_1804" data-name="Rect치ngulo 1804" width="46.753" height="1.247" transform="translate(20.573 5.61)" fill="#dd2517"/>
      <path id="Trazado_11513" data-name="Trazado 11513" d="M83.39,25.487V8.655a4.369,4.369,0,0,0-4.364-4.363H7.958A4.369,4.369,0,0,0,3.6,8.655V84.085H83.39V81.592H6.088V15.513H80.9v9.974ZM6.088,14.266V8.655a1.872,1.872,0,0,1,1.87-1.87H79.026a1.871,1.871,0,0,1,1.87,1.87v5.611H6.088Z" transform="translate(-3.595 -4.292)" fill="#dd2517"/>
      <path id="Trazado_11514" data-name="Trazado 11514" d="M67.726,38.081,44.784,22.549,21.843,38.081l.646.437V50.86H20.7l-.8,11.222h7.666l-.8-11.222H24.982V40.206l4.987,3.377v18.5H47.424V59.588H32.462V45.27l12.322,8.343L56.775,45.5v4.742h2.493v-6.43ZM22.582,59.588l.444-6.235h1.42l.446,6.235Zm3.709-21.507L44.784,25.56,63.277,38.081,44.784,50.6Z" transform="translate(-5.657 -6.6)" fill="#dd2517"/>
      <path id="Trazado_11515" data-name="Trazado 11515" d="M85.793,42.044a7.5,7.5,0,0,0-5.245-2.251h0a6.145,6.145,0,0,0-3.6,1.127l-.059-.058-.656.66c-.011.01-.02.02-.032.031l-.018.018L48.969,68.877l-.152.159-.04.036c-.018.018-.034.038-.052.058l-.61.63.049.052a6.979,6.979,0,0,0,1.1,8.877,7.5,7.5,0,0,0,5.246,2.249h0a6.157,6.157,0,0,0,3.6-1.13l.063.063.688-.691h0L86.089,51.854l.12-.123a.949.949,0,0,0,.073-.072c.069-.068.135-.136.2-.206l.466-.481-.044-.043A6.988,6.988,0,0,0,85.793,42.044Zm-35.258,28.8.037-.032a3.734,3.734,0,0,1,.446-.363c.059-.041.122-.077.183-.114a3.521,3.521,0,0,1,.464-.238c.041-.018.085-.029.128-.046a3.488,3.488,0,0,1,.548-.157c.023-.005.045-.014.068-.017a3.957,3.957,0,0,1,.674-.061c.024,0,.048,0,.072,0a4.59,4.59,0,0,1,.885.1c.032.007.065.016.1.022.115.027.23.058.343.093.04.012.079.025.117.039.107.034.213.077.318.12l.121.053c.1.046.2.1.3.152l.119.061c.1.058.2.12.294.184.038.022.074.046.111.07.1.07.2.145.291.22.031.025.062.05.093.073.124.1.245.215.36.329s.217.231.315.346c.028.032.052.068.079.1.068.086.138.17.2.261.028.039.053.08.079.121.057.086.114.17.165.258.023.045.045.087.068.128.049.089.1.174.137.265.021.045.038.089.058.135.038.089.078.174.111.265.017.048.032.1.048.145.03.086.059.174.083.261.015.053.025.1.038.155.02.084.039.165.055.249.01.059.018.118.027.179s.02.149.027.222.01.14.013.208.006.125.006.186c0,.084,0,.165-.009.245,0,.048-.006.093-.01.143-.009.093-.022.188-.038.278-.005.034-.01.066-.016.1-.02.107-.045.213-.074.317-.005.016-.008.031-.012.045a3.593,3.593,0,0,1-.122.346s0,0,0,0a3.764,3.764,0,0,1-.171.36,4.344,4.344,0,0,0-4.225-4.025h0a3.426,3.426,0,0,0-2.448.988,3.37,3.37,0,0,0-.946,1.948A4.055,4.055,0,0,1,50.535,70.841Zm1.34,3.646a2.177,2.177,0,0,1,1.565-.623,2.99,2.99,0,0,1,2.085.908,2.716,2.716,0,0,1,.541,3.341,3.818,3.818,0,0,1-1.552.333,4.865,4.865,0,0,1-2.88-1A2.464,2.464,0,0,1,51.875,74.487ZM84.515,49.9h0c-.023.022-.045.042-.069.063l-1.044.945.055.055L60.552,73.95c0-.027-.01-.055-.014-.082-.01-.065-.021-.129-.031-.193-.024-.145-.052-.288-.084-.432-.018-.072-.037-.145-.055-.215-.036-.136-.073-.27-.117-.4-.024-.079-.052-.154-.079-.231-.046-.127-.094-.252-.148-.379-.034-.077-.068-.155-.1-.232-.056-.123-.117-.244-.182-.363-.04-.079-.081-.154-.124-.231-.069-.121-.144-.236-.22-.353-.047-.073-.092-.147-.141-.218-.086-.123-.18-.242-.274-.362-.048-.059-.091-.121-.14-.179-.147-.177-.3-.349-.466-.514s-.347-.331-.528-.483c-.051-.041-.1-.079-.151-.116-.136-.111-.274-.217-.417-.315l-.177-.116c-.14-.089-.279-.177-.421-.258-.065-.036-.128-.072-.193-.1q-.211-.11-.428-.21l-.207-.092c-.144-.056-.286-.111-.43-.159-.075-.027-.149-.055-.224-.079-.153-.048-.307-.086-.46-.121q-.261-.062-.527-.1c-.073-.012-.146-.027-.219-.036L76.89,44.39l.059.061,1.014-1.139a3.609,3.609,0,0,1,2.585-1.025A4.993,4.993,0,0,1,84.026,43.8C85.835,45.621,86.055,48.355,84.515,49.9Z" transform="translate(-9.087 -8.78)" fill="#dd2517"/>
    </g>
  </g>
</svg>
