<svg xmlns="http://www.w3.org/2000/svg" width="88" height="87" viewBox="0 0 88 87">
  <g id="Creative_Services" transform="translate(0)">
    <g id="Grupo_8086" data-name="Grupo 8086" transform="translate(3.771 4.026)">
      <circle id="Elipse_14" data-name="Elipse 14" cx="0.936" cy="0.936" r="0.936" transform="translate(7.201 5.215)" fill="#dd2517"/>
      <circle id="Elipse_15" data-name="Elipse 15" cx="0.936" cy="0.936" r="0.936" transform="translate(10.942 5.215)" fill="#dd2517"/>
      <circle id="Elipse_16" data-name="Elipse 16" cx="0.936" cy="0.936" r="0.936" transform="translate(14.683 5.215)" fill="#dd2517"/>
      <rect id="Rectángulo_1791" data-name="Rectángulo 1791" width="46.763" height="1.247" transform="translate(20.576 5.612)" fill="#dd2517"/>
      <rect id="Rectángulo_1792" data-name="Rectángulo 1792" width="1.247" height="1.247" transform="translate(61.727 61.728)" fill="#dd2517"/>
      <path id="Trazado_11497" data-name="Trazado 11497" d="M79.018,45.412l-.058-.121-.07-.114a3.431,3.431,0,0,0-5.89.1l-.063.109-.052.115c-3.642,8.2-3.642,8.3-3.642,8.96V88.905H82.961V54.482C82.961,53.78,82.961,53.671,79.018,45.412Zm-3.853,1.1a.936.936,0,0,1,1.6-.024s.881,1.844,1.782,3.762H73.517C74.352,48.342,75.165,46.51,75.165,46.51ZM72.973,51.5h6.16c.408.874.778,1.676,1.025,2.232l-.06-.089L78.125,55l-2.152-1.648-2.035,1.636-1.9-1.3C72.265,53.134,72.6,52.346,72.973,51.5Zm.635,4.773V69.576h1.247V55.86h-.019l1.155-.929,1.359,1.04v13.6H78.6V56.184l1.87-1.287V78.929H78.6V73.317H77.349v5.612H74.855V75.189H73.608v3.741H71.737V54.989Zm6.858,26.4V86.41H71.738V82.67h1.871V81.422H71.738V80.176h8.729v1.247H74.855V82.67Z" transform="translate(-11.881 -9.096)" fill="#dd2517"/>
      <path id="Trazado_11498" data-name="Trazado 11498" d="M83.387,25.309V8.473a4.369,4.369,0,0,0-4.364-4.364H7.943A4.37,4.37,0,0,0,3.579,8.473V83.917H83.387V30.492c0-1.608-1.247-2.689-3.1-2.689h-7.79c-2.028,0-3.445,1.106-3.445,2.689v6.041H71.54l-.022-5.989a1.588,1.588,0,0,1,.974-.246h7.79a1.315,1.315,0,0,1,.6.1.278.278,0,0,1,.01.092V40.9H77.777v1.247h3.118v3.741H77.777v1.247h3.118v3.742H77.777V52.12h3.118v3.741H77.777v1.247h3.118v4.364H77.777v1.247h3.118v18.7H6.073V15.333H80.894v9.976ZM6.073,14.085V8.473A1.872,1.872,0,0,1,7.943,6.6h71.08a1.873,1.873,0,0,1,1.871,1.87v5.612H6.073Z" transform="translate(-3.579 -4.109)" fill="#dd2517"/>
      <g id="Grupo_8085" data-name="Grupo 8085" transform="translate(4.988 14.964)">
        <path id="Trazado_11499" data-name="Trazado 11499" d="M58.546,27.475V26.227H50.44V21.239H49.194v4.988H34.853V21.239H33.606v4.988H19.889V21.239H18.641v4.988H9.289v1.247h9.352v10.6H9.289v1.247h9.352v1.247h1.247V39.321h4.988V38.074H19.889v-10.6H33.606V35.58h1.247V27.475H49.194v10.6H37.347v1.247H49.194v10.6H47.946v1.247h1.247v1.247H50.44V51.168h8.106V49.92H50.44v-10.6h8.106V38.074H50.44v-10.6Z" transform="translate(-9.289 -21.239)" fill="#dd2517"/>
        <rect id="Rectángulo_1793" data-name="Rectángulo 1793" width="3.742" height="1.247" transform="translate(0 28.681)" fill="#dd2517"/>
        <rect id="Rectángulo_1794" data-name="Rectángulo 1794" width="3.117" height="1.247" transform="translate(46.139 40.528)" fill="#dd2517"/>
        <path id="Trazado_11500" data-name="Trazado 11500" d="M35.41,50.5V53.62H23.564v1.247H35.41v9.976h1.247V54.867h3.118V53.62H36.658V50.5Z" transform="translate(-11.094 -24.939)" fill="#dd2517"/>
        <path id="Trazado_11501" data-name="Trazado 11501" d="M50.44,67.617H49.194V78.839H34.853V77.592H33.606v1.247H19.889V67.617h12.47V66.37H19.889V57.641H18.641V66.37H9.289v1.247h9.352V78.839H9.289v1.247h9.352v4.988h1.247V80.087H33.606v4.988h1.247V80.087H49.194v4.988H50.44V80.087h8.106V78.839H50.44Z" transform="translate(-9.289 -25.841)" fill="#dd2517"/>
      </g>
      <path id="Trazado_11502" data-name="Trazado 11502" d="M54.354,59.606a1.994,1.994,0,0,0-2.31-.366l-10.4-10.4c-.237-.335-.48-.665-.745-.983a1.863,1.863,0,0,0-2.621-2.495c-.129-.1-.263-.191-.4-.284L27.39,34.588a2,2,0,1,0-.784.98l7.618,7.617a15.507,15.507,0,0,0-16.08,3.582l-1.551-1.55-3.317,3.317,4.239,4.24,3.317-3.318L19.074,47.7a.6.6,0,0,0,.048-.144A14.214,14.214,0,0,1,37.1,46.064l.386.386a1.854,1.854,0,0,0,2.285,2.286l.93.929a14.24,14.24,0,0,1-1.564,18.1l-1.972-1.972L33.852,69.11l4.239,4.239,3.317-3.317-1.385-1.385a15.477,15.477,0,0,0,3.539-16.123l7.6,7.6a2,2,0,1,0,3.192-.518Zm-36.839-8.6-2.476-2.476,1.554-1.553,2.476,2.476ZM38.091,71.584l-2.476-2.476,1.554-1.553,2.476,2.476Z" transform="translate(-4.805 -7.621)" fill="#dd2517"/>
    </g>
    <rect id="Rectángulo_1795" data-name="Rectángulo 1795" width="88" height="87" transform="translate(0)" fill="none"/>
  </g>
</svg>
