<svg xmlns="http://www.w3.org/2000/svg" width="87" height="87" viewBox="0 0 87 87">
  <g id="SEO" transform="translate(0.188)">
    <g id="Grupo_8091" data-name="Grupo 8091" transform="translate(4.13 4.027)">
      <path id="Trazado_11527" data-name="Trazado 11527" d="M46.524,66.665a23.512,23.512,0,1,1,8.5-32.16l-1.614.935A21.622,21.622,0,0,0,16.015,57.162a21.557,21.557,0,0,0,29.574,7.888Z" transform="translate(-4.55 -6.473)" fill="#a8b5c1"/>
      <path id="Trazado_11528" data-name="Trazado 11528" d="M27.418,53.631l-6.323,3.661c-1.816,1.052-3,.137-4.175-1.89l1.613-.934c.66,1.138.7,1.747,1.627,1.211l6.322-3.661a2.8,2.8,0,0,0,1.065-3.371l-1.293-2.233c-1.334-2.3-1.116-4.264.578-5.245l.05-.03a2.2,2.2,0,0,0,.483-3.036L25.233,34.42a1.681,1.681,0,0,0-2.544-.67l-.935-1.613a3.532,3.532,0,0,1,5.091,1.348l2.132,3.683a4.05,4.05,0,0,1-1.162,5.584l-.051.029c-.905.524-.445,1.756.1,2.7l1.293,2.232A4.607,4.607,0,0,1,27.418,53.631Z" transform="translate(-5.267 -7.581)" fill="#a8b5c1"/>
      <path id="Trazado_11529" data-name="Trazado 11529" d="M44.728,42.238l-4.962,2.873a2,2,0,0,1-2.732-.742l-.04-.076c-.023-.052-.591-1.283-1.109-2.57-.906-2.25-1.233-3.368-.333-3.89l1.254-.727a.14.14,0,0,0,.037-.192l-.148-.255.341-3.889.418-.242a.073.073,0,0,0,.039-.046l-.073-.1-.795-1.392a2.133,2.133,0,0,1,.839-2.666l1.254-.727a2.07,2.07,0,0,1,2.8.7l.74,1.278a.223.223,0,0,0,.111.108l.024-.016a2,2,0,0,1,2.462.373l4.8,1.068.205.354c.169.293.426.736-.594,3.265-1.122,2.775-1.744,3.258-2.084,3.4l-1.667.965a.39.39,0,0,0-.086.392A2.007,2.007,0,0,1,44.728,42.238Zm-6.067,1.217a.136.136,0,0,0,.172.045l4.961-2.873a.141.141,0,0,0,.036-.191,2.259,2.259,0,0,1,.447-2.749l.084-.081L46.32,36.47a16.809,16.809,0,0,0,1.717-3.811L43.721,31.7l-.205-.355a.14.14,0,0,0-.187-.063l-.018.01a1.943,1.943,0,0,1-2.664-.783l-.66-1.141-1.613.934.634,1.1a1.865,1.865,0,0,1,.318,1.442,1.924,1.924,0,0,1-.508.968L38.6,36.281a2,2,0,0,1-.858,2.437l-.787.455A36.171,36.171,0,0,0,38.661,43.455Zm9.495-11.361Z" transform="translate(-7.555 -7.044)" fill="#a8b5c1"/>
      <circle id="Elipse_23" data-name="Elipse 23" cx="0.936" cy="0.936" r="0.936" transform="translate(7.201 5.215)" fill="#a8b5c1"/>
      <circle id="Elipse_24" data-name="Elipse 24" cx="0.935" cy="0.935" r="0.935" transform="translate(10.943 5.216)" fill="#a8b5c1"/>
      <circle id="Elipse_25" data-name="Elipse 25" cx="0.935" cy="0.935" r="0.935" transform="translate(14.684 5.216)" fill="#a8b5c1"/>
      <rect id="Rectángulo_1806" data-name="Rectángulo 1806" width="46.762" height="1.247" transform="translate(20.575 5.611)" fill="#a8b5c1"/>
      <path id="Trazado_11530" data-name="Trazado 11530" d="M83.388,63.876V8.474A4.371,4.371,0,0,0,79.022,4.11H7.944A4.371,4.371,0,0,0,3.58,8.474V83.918H83.388V81.424H6.074V15.334h74.82V63.877h2.493ZM6.074,14.085V8.474A1.873,1.873,0,0,1,7.944,6.6H79.022a1.874,1.874,0,0,1,1.873,1.87v5.611H6.074Z" transform="translate(-3.58 -4.11)" fill="#a8b5c1"/>
      <path id="Trazado_11531" data-name="Trazado 11531" d="M64.062,71.368A16.617,16.617,0,1,1,79.427,53.587,16.636,16.636,0,0,1,64.062,71.368ZM61.835,40.821A14.012,14.012,0,1,0,76.827,53.776,14.028,14.028,0,0,0,61.835,40.821Z" transform="translate(-8.973 -8.417)" fill="#a8b5c1"/>
      <path id="Trazado_11532" data-name="Trazado 11532" d="M85.909,83.715l-12.289-12,5.918-6.062,12.288,12ZM77.3,71.671l8.561,8.357L88.14,77.7l-8.559-8.358Z" transform="translate(-12.435 -11.891)" fill="#a8b5c1"/>
      <path id="Trazado_11533" data-name="Trazado 11533" d="M64.508,66.092a10.427,10.427,0,1,1,9.64-11.158A10.44,10.44,0,0,1,64.508,66.092Zm-1.421-19.5a9.123,9.123,0,1,0,9.761,8.437A9.134,9.134,0,0,0,63.087,46.591Z" transform="translate(-9.869 -9.313)" fill="#a8b5c1"/>
      <rect id="Rectángulo_1807" data-name="Rectángulo 1807" width="23.069" height="1.247" transform="translate(48.01 15.588)" fill="#a8b5c1"/>
      <rect id="Rectángulo_1808" data-name="Rectángulo 1808" width="23.069" height="1.247" transform="translate(48.01 19.951)" fill="#a8b5c1"/>
      <rect id="Rectángulo_1809" data-name="Rectángulo 1809" width="39.28" height="1.248" transform="translate(6.236 71.08)" fill="#a8b5c1"/>
      <path id="Trazado_11534" data-name="Trazado 11534" d="M69.384,54.5l-3.248.236-.238-3.25-2.6.19.238,3.25-3.25.237.19,2.6,3.25-.238.237,3.249,2.6-.189-.238-3.25,3.249-.237Z" transform="translate(-10.749 -10.1)" fill="#a8b5c1"/>
    </g>
    <rect id="Rectángulo_1810" data-name="Rectángulo 1810" width="87" height="87" transform="translate(-0.188)" fill="none"/>
  </g>
</svg>
